<svg xmlns="http://www.w3.org/2000/svg" viewBox="0 0 185.22 59.15"><defs><style>.cls-1{fill:#b41f24;}.cls-2{fill:#d63427;}.cls-3{fill:#474747;}</style></defs><title>Asset 2</title><g id="Layer_2" data-name="Layer 2"><g id="Layer_1-2" data-name="Layer 1"><path class="cls-1" d="M50,12.85a5.3,5.3,0,0,1,2.65,4.59v4A5.3,5.3,0,0,1,50,26L27.34,39.13a2,2,0,0,1-2,0l-6.76-3.9a2,2,0,0,1-1-1.75V28a2,2,0,0,1,3-1.75L25.32,29a2,2,0,0,0,2,0l13.51-7.8a2,2,0,0,0,0-3.49Z"/><path class="cls-1" d="M11,51.15C8.71,49.39,10,42.89,10,42.89L10,40.43a2.49,2.49,0,0,1-1.24-2.15V20.61a2,2,0,0,1,1-1.75L25.21,10a2.25,2.25,0,0,1,2.13-.06h0l6.14-6.59h0L29,.71a5.3,5.3,0,0,0-5.3,0l-21,12.14A5.3,5.3,0,0,0,0,17.44V41.72A5.3,5.3,0,0,0,2.65,46.3Z"/><path class="cls-2" d="M50,12.85,29,.71a5.3,5.3,0,0,0-5.3,0L17.2,4.45,8.9,9.25l3.42-2a10.44,10.44,0,0,1,10.45,0l7,4,7.92,4.57,3.17,1.83h0a7.87,7.87,0,0,1,0,13.63l-3,1.74L50,26a5.3,5.3,0,0,0,2.65-4.59v-4A5.3,5.3,0,0,0,50,12.85Z"/><path class="cls-1" d="M19.37,56l4.31,2.49a5.3,5.3,0,0,0,5.3,0L51.64,45.36a2,2,0,0,0,1-1.75V38.14a2,2,0,0,0-3-1.75L27.34,49.26a2,2,0,0,1-2,0Z"/><path class="cls-2" d="M0,41.72A5.3,5.3,0,0,0,2.65,46.3l21,12.14a5.3,5.3,0,0,0,5.3,0L51.64,45.36,40.32,51.89a10.44,10.44,0,0,1-10.44,0l-7.1-4.1L10.5,40.71,5.22,37.66a10.44,10.44,0,0,1-5.22-9v13.1Z"/><polygon class="cls-3" points="68.44 29.7 79.64 29.7 79.64 26.33 68.44 26.33 68.44 19.57 81.16 19.57 81.16 16.2 65.09 16.2 65.09 41.66 81.16 41.66 81.16 38.3 68.44 38.3 68.44 29.7"/><path class="cls-3" d="M99.16,25.45a9.2,9.2,0,0,0-5.81-2.08,9.15,9.15,0,0,0,0,18.29,9.21,9.21,0,0,0,5.81-2.08v2.08h3.35V16.2H99.16ZM93.35,38.31a5.8,5.8,0,1,1,5.81-5.81A5.8,5.8,0,0,1,93.35,38.31Z"/><path class="cls-3" d="M117.48,34a4.28,4.28,0,1,1-8.56,0V23.37h-3.35V34a7.64,7.64,0,0,0,11.91,6.34v1.3h3.35V23.37h-3.35Z"/><path class="cls-3" d="M143.41,23.37A7.56,7.56,0,0,0,138,25.61a7.67,7.67,0,0,0-.56.63,7.64,7.64,0,0,0-6-2.87,7.55,7.55,0,0,0-4.26,1.3v-1.3h-3.35V41.66h3.35V31a4.28,4.28,0,0,1,8.56,0V41.66h3.35V31a4.28,4.28,0,0,1,8.56,0V41.66h3.35V31a7.64,7.64,0,0,0-7.65-7.61Z"/><path class="cls-3" d="M169.05,25.45a9.2,9.2,0,0,0-5.81-2.08,9.15,9.15,0,0,0,0,18.29,9.21,9.21,0,0,0,5.81-2.08v2.08h3.35V23.37h-3.35Zm-5.81,12.87a5.8,5.8,0,1,1,5.81-5.81A5.8,5.8,0,0,1,163.24,38.31Z"/><rect class="cls-3" x="175.46" y="16.2" width="3.35" height="25.46"/><rect class="cls-3" x="181.87" y="16.2" width="3.35" height="25.46"/></g></g></svg>